<?xml version="1.0" encoding="utf-8"?>
<!-- Generator: Adobe Illustrator 19.2.1, SVG Export Plug-In . SVG Version: 6.00 Build 0)  -->
<svg version="1.1"
	 id="svg5167" inkscape:version="0.48.1 " sodipodi:docname="Neues Dokument 3" xmlns:cc="http://creativecommons.org/ns#" xmlns:dc="http://purl.org/dc/elements/1.1/" xmlns:inkscape="http://www.inkscape.org/namespaces/inkscape" xmlns:rdf="http://www.w3.org/1999/02/22-rdf-syntax-ns#" xmlns:sodipodi="http://sodipodi.sourceforge.net/DTD/sodipodi-0.dtd" xmlns:svg="http://www.w3.org/2000/svg"
	 xmlns="http://www.w3.org/2000/svg" xmlns:xlink="http://www.w3.org/1999/xlink" x="0px" y="0px" viewBox="0 0 125.7 76.4"
	 style="enable-background:new 0 0 125.7 76.4;" xml:space="preserve">
<style type="text/css">
	.st0{fill:#DC1D3B;}
	.st1{fill:#2D2C2E;}
</style>
<sodipodi:namedview  bordercolor="#666666" borderopacity="1.0" fit-margin-bottom="0" fit-margin-left="0" fit-margin-right="0" fit-margin-top="0" id="base" inkscape:current-layer="layer1" inkscape:cx="62.870002" inkscape:cy="38.209996" inkscape:document-units="px" inkscape:pageopacity="0.0" inkscape:pageshadow="2" inkscape:window-height="708" inkscape:window-maximized="1" inkscape:window-width="1024" inkscape:window-x="-4" inkscape:window-y="-4" inkscape:zoom="6.5978757" pagecolor="#ffffff" showgrid="false">
	</sodipodi:namedview>
<path id="path54" inkscape:connector-curvature="0" class="st0" d="M39.9,42.1c-0.4,0.1-0.7,0.2-1.1,0.3v0.8c0,0.4-0.3,0.8-0.7,0.9
	c0,0,0,0,0,0V46h2.4v-2.1c0,0,0,0,0,0c-0.4-0.1-0.7-0.5-0.7-0.9v-0.8C39.9,42.2,39.9,42.1,39.9,42.1"/>
<path id="path58" inkscape:connector-curvature="0" class="st0" d="M40.5,30.3c0,1.1-0.3,2.2-0.8,3.2c2.7-0.7,5.4-1.4,8.1-2.1
	c-0.8-2.1-1.6-4.4-1.6-4.4c0,0,0,0,0,0c0-0.1,0-0.1-0.3-0.2l-0.1,0c-0.4-0.1-0.7-0.4-0.7-0.9V25c0-0.2,0.1-0.4,0.1-0.5
	c0.1-0.1,0.1-0.3-0.1-0.2c-2.1,0.7-4.2,1.4-6.1,2.1C40,27.5,40.5,28.8,40.5,30.3"/>
<path id="path62" inkscape:connector-curvature="0" class="st0" d="M59.7,37.2h-2.1c-0.5,0-0.9-0.4-0.9-0.9v-0.8
	c0-0.3,0.1-0.6,0.4-0.7c-0.2-0.5-0.5-1.2-0.9-2.3c-0.4,1.2-0.8,2-0.9,2.3c0.2,0.2,0.4,0.4,0.4,0.7v0.8c0,0.5-0.4,0.9-0.9,0.9h-5.3
	c-0.5,0-0.9-0.4-0.9-0.9v-0.8c0-0.3,0.2-0.6,0.4-0.8c-0.1-0.2-0.4-1.2-0.9-2.5c-1.5,0.4-3.1,0.8-5,1.3c-0.5,0.1-1,0.5-0.9,1.1
	c0.1,0.5,0.1,1.1,0.1,1.5c-0.1,1.2-0.5,2.5-1.1,3.7c-0.2,0.4,0,0.9,0.7,1c0.5,0.1,1.6-0.2,1.9-0.2c5.1-0.8,10.8-2,15.3-3.2
	C59.3,37.3,59.5,37.2,59.7,37.2"/>
<path id="path66" inkscape:connector-curvature="0" class="st0" d="M33.8,54.4h-1.3c-0.5,0-0.9-0.4-0.9-0.9v-0.8
	c0-0.3,0.1-0.5,0.3-0.7c-0.1,0-0.3-0.1-0.4-0.1c-0.4,0.7-1,1.4-1.8,1.8c-1.5,0.9-3.3,1-4.5,1c-0.6,0-1.1,0-1.6-0.1
	c-1.3,0.9-2.9,2.1-3.6,3.2c-0.4,0.5,0.4,0.9,1,0.6c3.1-1.5,5.9-1.7,9.5-1.3C32.1,57.4,33,56.2,33.8,54.4
	C33.8,54.5,33.8,54.4,33.8,54.4"/>
<path id="path70" inkscape:connector-curvature="0" class="st0" d="M20.1,53.4c0,0-0.1,0-0.1,0.1l-0.1,0.1c-0.3,0.1-0.6,0.1-0.8,0
	c-0.1,0.2-0.1,0.3-0.2,0.5c-0.6,1.4-0.7,2.1-0.8,3c-0.1,0.4,0,0.7,0.4,0.7c0.3,0,0.5-0.2,1-0.7c1-1.1,1.9-1.9,2.8-2.7
	c-0.8-0.2-1.4-0.5-1.8-0.8C20.2,53.4,20.1,53.4,20.1,53.4"/>
<path id="path74" inkscape:connector-curvature="0" class="st0" d="M23.4,49.9c-0.6-0.1-1.2-0.3-1.8-0.5c0,0-0.1,0.1-0.1,0.1
	c0.1,0,0.3,0.1,0.4,0.2c0.7,0.7,2.2,1.5,3.4,1.5c0.6,0,0.9-0.1,1.1-0.1c0-0.1-0.1-0.2-0.4-0.3c-0.5-0.3-1.2-0.5-1.9-0.7
	C23.8,50,23.6,49.9,23.4,49.9"/>
<path id="path78" inkscape:connector-curvature="0" class="st0" d="M18.3,52.8L18.3,52.8c-0.2-0.2-0.3-0.5-0.3-0.7
	c0-0.2,0.1-0.5,0.3-0.6l1.1-0.9c0.3-0.5,0.7-1,1.1-1.6c0,0,0,0,0,0c-1.1-0.7-1.7-1.7-1.7-3c0-1.7,0.8-3,2.3-3.9
	c-0.2-0.4-0.5-0.5-1.1-0.3c-0.9,0.3-2.3,1.2-3,2.8c-1.2,2.4-2.2,6.1-2,9.8c0.1,1.5,0.4,2.8,0.9,3.7c0.3,0.6,0.9,0.5,1-0.1
	c0.2-1.2,0.6-2.5,0.8-3.3C17.9,53.9,18.1,53.4,18.3,52.8"/>
<path id="path82" inkscape:connector-curvature="0" class="st0" d="M32.3,50.7v-6.7c0,0,0,0,0,0c-0.2-0.1-0.4-0.2-0.5-0.4
	c0,0.2-0.1,0.3-0.3,0.4L31,44.4l-1.6,1.3c-0.3,0.3-0.8,0.3-1.2,0c-0.8-0.7-2.2-1.1-2.8-1.1c-0.6,0-0.9,0.1-1.1,0.1
	c0,0,0.1,0.1,0.2,0.1c0.4,0.2,1.1,0.4,1.9,0.6l0.2,0.1l0.4,0.1c0.9,0.3,2.1,0.6,3,1.2c1.2,0.8,1.9,1.8,1.9,3.2c0,0.3,0,0.6-0.1,0.8
	C32,50.8,32.2,50.7,32.3,50.7"/>
<path id="path86" inkscape:connector-curvature="0" class="st0" d="M22.8,58.7c-0.5,0.2-0.5,0.9-0.1,1.1c1.8,0.7,3.2,1.8,4.5,3.2
	c0.5,0.5,1.9,0.7,2.7,0.8c1.5,0.2,2.5,0.1,3.8-0.9c0.5-0.4,0.6-0.6,0.5-1.1c-0.3-1.2-0.9-1.8-2-2.5c-0.9-0.5-2.4-1.2-4.2-1.3
	C26.2,58,24,58.3,22.8,58.7"/>
<path id="path90" inkscape:connector-curvature="0" class="st0" d="M24.5,37.2h-2.5c-1,1-1.8,2.1-2.5,3.2c-0.2,0.3,0,0.7,0.5,0.5
	c0.3-0.1,0.7-0.2,1.1-0.2c0.4,0,0.8,0.1,1,0.5c0.1,0.1,0.2,0.3,0.2,0.5c1.2-0.5,2.5-0.5,3.2-0.5c0.1,0,0.3,0,0.4,0
	c1.7-1.4,3.8-2.7,5.7-3.8h-4.6c-0.5,0-0.9-0.4-0.9-0.9v-0.6c0-0.2-0.2-0.2-0.3,0l-0.4,1C25.1,37,24.8,37.2,24.5,37.2"/>
<path id="path94" inkscape:connector-curvature="0" class="st0" d="M26.7,34.6V33c-0.3,0.2-0.6,0.5-0.9,0.7c0.2,0.2,0.4,0.4,0.4,0.7
	v0.1c0,0,0,0,0,0.1c0,0,0,0,0,0c0,0.1,0.1,0.2,0.3,0.1C26.4,34.7,26.5,34.6,26.7,34.6C26.6,34.6,26.7,34.6,26.7,34.6"/>
<path id="path98" inkscape:connector-curvature="0" class="st0" d="M20.5,37.2H15c0,0,0,0-0.1,0c-1.3,3-2,6.2-2,9.2
	c0,1.4,0.1,2.8,0.5,4.2c0.2,0.8,0.9,0.8,0.9,0c0.1-1.2,0.3-2.4,1-4.4C16.6,42.6,18.3,39.7,20.5,37.2"/>
<path id="path102" inkscape:connector-curvature="0" class="st0" d="M29.3,41.8c0,0,0.1,0,0.1,0c0.2,0.1,0.3,0.1,0.3,0.1
	c0,0,0.1,0,0.1-0.1l0.1-0.1c0.4-0.2,0.8-0.1,1.1,0.2l0.5,0.6c0,0,0,0,0,0.1v-0.5c0-0.5,0.4-0.9,0.9-0.9H38c0,0,0,0,0,0
	c0.7-0.3,1.3-0.6,1.5-0.9c1-1.2,1.7-3.2,1.7-4.5c0-0.8-0.1-1.4-1-1.4c-0.5,0-1.1,0.1-1.6,0.2c-0.2,0.2-0.4,0.4-0.6,0.5
	c-1.3,1.1-3,1.7-4.7,1.8c-2.1,1.2-4.2,2.5-6.1,4C28,41.3,28.7,41.5,29.3,41.8"/>
<path id="path106" inkscape:connector-curvature="0" class="st0" d="M67.4,34.6C67.4,34.6,67.4,34.6,67.4,34.6l0-7.9c0,0,0,0,0,0
	c-0.1,0-0.1,0-0.2-0.1c-0.1,0-0.1,0.1-0.2,0.1l-0.2,0c-0.3,0.1-0.3,0.1-0.3,0.2c0,0,0,0,0,0.1c0,0-2.8,6.9-3.1,7.8
	c0.2,0.2,0.4,0.4,0.4,0.7v0.8c0,0.5-0.4,0.9-0.9,0.9h-0.4c-0.1,0.3,0,0.7,0.4,0.7c0.7,0.1,2.2-0.3,2.9-0.5c0.5-0.1,1-0.2,1.4-0.4
	c-0.3-0.2-0.4-0.4-0.4-0.8v-0.8C66.8,35.1,67,34.7,67.4,34.6"/>
<path id="path110" inkscape:connector-curvature="0" class="st0" d="M34.4,30.3c0-0.9-0.2-1.6-0.6-2.1c-0.3-0.3-0.7-0.5-1.3-0.6v6
	C33.3,33.6,34.4,33.2,34.4,30.3"/>
<path id="path114" inkscape:connector-curvature="0" class="st0" d="M64.1,19.8c-2.4,0.2-4.4,0.5-7,1.2c-2.8,0.7-6.7,1.7-10.6,3
	c-0.2,0.1-0.2,0.2,0,0.2H52c0.5,0,0.9,0.4,0.9,0.9v0.8c0,0.3-0.2,0.6-0.5,0.8c0.1,0.3,0.4,1.5,0.9,2.9c0.5-1.5,1-2.7,1.1-3
	c-0.2-0.2-0.4-0.4-0.4-0.7V25c0-0.5,0.4-0.9,0.9-0.9h4.4c0.5,0,0.9,0.4,0.9,0.9v0.8c0,0.3-0.1,0.5-0.4,0.7c0.1,0.4,0.6,1.7,1.2,3.3
	c0.6-1.5,1.1-2.9,1.2-3.2c-0.2-0.2-0.4-0.4-0.4-0.7V25c0-0.5,0.4-0.9,0.9-0.9h1.3c0.1-0.2,0.2-0.3,0.3-0.5
	C65.2,22.1,65.6,19.7,64.1,19.8"/>
<path id="path118" inkscape:connector-curvature="0" class="st0" d="M38,54.4h-3.1c-0.2,0.6-0.4,0.8-0.5,1.2
	c-0.2,0.4-0.1,0.8,0.3,0.7c1.5-0.3,3.8-0.8,6.7-1.1c1-0.1,2.1-0.2,2.9-0.8h-3.4c-0.5,0-0.9-0.4-0.9-0.9v-0.8c0-0.4,0.3-0.8,0.7-0.9
	c0,0,0,0,0,0v-2.2h-2.2c-0.1,0-0.1,0-0.2,0.1v2.2c0,0,0,0,0,0c0.4,0.1,0.7,0.5,0.7,0.9v0.8C38.9,54,38.5,54.4,38,54.4"/>
<path id="path122" inkscape:connector-curvature="0" class="st0" d="M52.9,48.4c0.1,1.2,0.4,3,1.6,3c0.3,0,0.8-0.1,1.1-0.9
	c0.3-0.7,0.5-1.7,0.5-2.8c0,0,0,0-0.1,0C54.8,47.9,53.8,48.2,52.9,48.4"/>
<path id="path126" inkscape:connector-curvature="0" class="st0" d="M25.8,66.9c0.5,0.1,0.8-0.4,0.9-0.7c0.2-0.9,0.2-1.7-0.2-2.4
	c-1.3-2.1-3.5-3.2-5.4-3.9c-0.8-0.3-1.6-0.5-2.4-1c-0.3-0.2-0.8-0.2-1,0c-0.2,0.2-0.3,0.6-0.2,1C18,63.3,20,66,25.8,66.9"/>
<path id="path130" inkscape:connector-curvature="0" class="st0" d="M83.5,25.8v-0.3c-0.5,0.1-1,0.2-1.4,0.3c-0.5,0.1-1,0.2-1.5,0.3
	c1.2,1,2.7,2.2,3.6,3v-2.4c0,0,0,0,0,0C83.8,26.6,83.5,26.2,83.5,25.8"/>
<path id="path134" inkscape:connector-curvature="0" class="st0" d="M73.9,35.1c0.1-0.2,0.3-0.4,0.6-0.5c0,0,0,0,0,0v-7.9
	c0,0,0,0,0,0c-0.3-0.1-0.5-0.2-0.6-0.5c-0.1,0.2-0.3,0.4-0.6,0.5c0,0,0,0,0,0v7.9c0,0,0,0,0,0C73.6,34.7,73.8,34.9,73.9,35.1"/>
<path id="path138" inkscape:connector-curvature="0" class="st0" d="M73.9,36.7c-0.1,0.3-0.4,0.5-0.8,0.5h-2.7
	c-1.6,0.4-3.3,0.9-4.7,1.3c-0.4,0.1-0.8,0.5-0.8,1c0,0.5-0.2,1.2-0.4,1.9h7c0.1,0,0.2,0,0.2,0c1.3-1.2,2.3-2.4,2.9-3.8
	c0.1-0.1,0.1-0.3,0.1-0.4C74.3,37.2,74.1,37,73.9,36.7"/>
<path id="path142" inkscape:connector-curvature="0" class="st0" d="M78.9,34.6c0.6-0.2,1.3-0.4,2-0.6c-0.7-0.6-1.4-1.1-2-1.6V34.6z
	"/>
<path id="path146" inkscape:connector-curvature="0" class="st0" d="M94.8,23c-1.3,0.3-3.5,0.8-5.8,1.3c0.2,0.2,0.3,0.4,0.3,0.7v0.8
	c0,0.4-0.3,0.8-0.7,0.9c0,0,0,0,0,0V30c0,0,0.1,0,0.1,0c0.2-1.7,1-3.3,2.4-4.4c1.4-1.1,3.4-1.8,5.5-1.8c0,0,0-0.1,0-0.1
	C96.8,22.7,95.4,22.9,94.8,23"/>
<path id="path150" inkscape:connector-curvature="0" class="st0" d="M123,1.1c-3.1,0.7-9.2,2-15.3,2.4c-14.3,1.1-32,3.2-53.8,8.6
	c-6.1,1.5-19,5.6-26.7,10.8c-0.9,0.6-1.7,1.2-2.5,1.8l0.7,1.6c0,0.1,0.1,0.2,0.1,0.4v0.1c0,0.5-0.4,0.9-0.9,0.9h-3.9v1h2.8
	c0.5,0,0.9,0.4,0.9,0.9v1.9c0,0.5-0.4,0.9-0.9,0.9h-2.8v1.2h3.7c0.7-0.6,1.5-1.2,2.3-1.8v-5.1c0,0,0,0,0,0c-0.4-0.1-0.7-0.5-0.7-0.9
	V25c0-0.5,0.4-0.9,0.9-0.9H33c1.9,0,3.7,0.5,5,1.3c0.1,0.1,0.2,0.1,0.2,0.2c5.2-2,11.7-4,17.9-5.5c14.9-3.8,33.8-6.6,53.9-9.5
	c2.1-0.3,5.5-1.3,7.1-2.2c2.3-1.2,6.5-3.7,7.6-6.3C125,1.3,124.1,0.8,123,1.1"/>
<path id="path154" inkscape:connector-curvature="0" class="st0" d="M107.9,11.9c-5.3,1-10.4,1.7-15.6,2.6
	c-10.4,1.6-18.1,3-24.8,4.5c-0.8,0.2-1.2,0.7-1.2,1.3c0,0.6-0.1,1.3-0.2,1.9c-0.2,0.7-0.4,1.4-0.7,2h1.4c0.2,0,0.3,0,0.4,0.1
	c0.1-0.1,0.3-0.1,0.4-0.1h5.5c0.4,0,0.7,0.2,0.8,0.5c0.1-0.3,0.4-0.5,0.8-0.5h3c0.2,0,0.4,0.1,0.6,0.2c0,0,0.5,0.4,1.2,1
	c1.5-0.3,2.9-0.6,4.3-0.9c0.2-0.1,0.4-0.2,0.6-0.2h0.5c2.4-0.5,4.6-1,6.2-1.3c3.1-0.6,9.9-2.9,12.3-4.3c2.9-1.6,5.2-3.8,5.9-5.3
	C109.9,11.9,108.7,11.7,107.9,11.9"/>
<path id="path158" inkscape:connector-curvature="0" class="st0" d="M62.8,39c-1.2-0.4-3.9-0.4-4.6-0.3c-4.5,0.9-7.8,1.7-11.7,2.4
	c-0.3,0.1-0.6,0.2-0.8,0.3h0.5c0.5,0,0.9,0.4,0.9,0.9v0.8c0,0.4-0.3,0.8-0.7,0.9c0,0,0,0,0,0v3.4l0.2,0c0.1-1.8,0.9-3.3,2.3-4.5
	c1.4-1.2,3.4-1.8,5.5-1.8c2.1,0,4,0.7,5.5,1.8c1.2,1,2,2.4,2.2,4c0.1,0,0.2,0,0.3,0v-2.9c0,0,0,0,0,0c-0.4-0.1-0.7-0.5-0.7-0.9v-0.8
	c0-0.5,0.4-0.9,0.9-0.9h0.6c0.1-0.1,0.1-0.3,0.2-0.4C63.9,40,63.8,39.3,62.8,39"/>
<path id="path162" inkscape:connector-curvature="0" class="st0" d="M31.5,72.1c-2.4-1.1-3.5-2.6-4.3-3.7c-0.2-0.3-0.6-0.4-1-0.4
	c-0.8,0-1.7-0.2-2.3-0.4c-0.4-0.1-0.7,0-0.6,0.4c0.4,4.8,4.7,8.2,9.6,7.1c0.3-0.1,0.5-0.3,0.4-0.6c-0.1-0.8-0.5-1.2-0.9-1.8
	C32.1,72.4,31.7,72.2,31.5,72.1"/>
<path id="path166" inkscape:connector-curvature="0" class="st0" d="M38.6,69.5c-0.1-0.1-0.6-0.3-0.8-0.4c-2.6-0.4-5.8-1.7-7.4-3.8
	c-0.2-0.2-0.5-0.4-0.8-0.4c-0.4,0-0.7-0.1-1-0.1c-0.3,0-0.6,0.2-0.7,0.5c-0.1,0.4-0.1,0.8-0.2,1c-0.1,0.5,0.1,1.1,0.2,1.4
	c1.3,2.6,6,5.3,10.8,4.8c0.4,0,0.8-0.2,0.7-0.9C39.3,70.5,39,69.8,38.6,69.5"/>
<path id="path170" inkscape:connector-curvature="0" class="st0" d="M55.5,45c-0.2-0.3-0.5-0.7-1-0.7c-0.5,0-0.8,0.4-1,0.7
	c-0.4,0.6-0.6,1.4-0.6,2.4c1.1-0.3,2.2-0.5,3.2-0.8C55.9,45.9,55.7,45.4,55.5,45"/>
<path id="path174" inkscape:connector-curvature="0" class="st0" d="M22.2,68c0-0.4-0.2-0.8-0.6-1c-1.2-0.5-2.4-1.3-3.1-2
	c-0.3-0.3-0.8-0.3-0.8,0.2c0,1-0.2,1.8-0.3,2.7c-0.2,4.1,2,6,5.2,7.5c0.3,0.1,0.6,0.1,0.8-0.2c0.3-0.5,0.5-1.1,0.5-1.7
	c0-0.2-0.2-0.7-0.4-0.9C23,71.6,22.2,69,22.2,68"/>
<path id="path178" inkscape:connector-curvature="0" class="st0" d="M49,52.9c-1.3-1.1-2.1-2.6-2.3-4.3l-0.2,0v3.2c0,0,0,0,0,0
	c0.4,0.1,0.7,0.5,0.7,0.9v0.8c0,0.5-0.4,0.9-0.9,0.9h-0.9c-0.2,0.2-0.2,0.4-0.2,0.5c0,0.2,0.2,0.3,0.5,0.4c0.6,0.2,1.4,0.5,2.2,0.8
	c0.3,0.1,1.1,0.3,1.4,0.2c1.9-0.4,3.8-0.9,5.4-1.6c-0.1,0-0.1,0-0.2,0C52.3,54.8,50.4,54.1,49,52.9"/>
<path id="path182" inkscape:connector-curvature="0" class="st0" d="M42.6,65.1c-0.7-0.8-1.3-1.3-2.5-1.6c-0.2-0.1-0.7-0.1-0.9-0.1
	c-1.5,0-2.5,0-3.6-0.1c-0.4,0-0.9,0.1-1.2,0.4c-0.4,0.3-1.2,0.7-2.1,1c-0.4,0.1-0.5,0.6-0.3,0.8c1.6,1.7,5.7,3.1,8.6,2.8
	c1.4-0.1,2-0.4,2.7-0.8c0.4-0.3,0.4-0.6,0.2-1.1C43.2,66,42.8,65.4,42.6,65.1"/>
<path id="path186" inkscape:connector-curvature="0" class="st0" d="M46.7,56.7c-1.4-0.5-2-0.6-3.2-0.7c-0.8-0.1-2.1,0-3.7,0.2
	c-1.7,0.3-3.5,0.6-6.2,1.3c-0.7,0.2-0.9,0.9-0.5,1.2c0.8,0.5,1.7,1.5,2,2.7c0.1,0.4,0.6,0.9,1.1,0.9c1.3,0.1,3.8,0.1,4.7-0.1
	c2.3-0.6,4.8-1.9,6.2-3.9C47.6,57.9,47.6,57.1,46.7,56.7"/>
<path id="path210" inkscape:connector-curvature="0" class="st1" d="M25.1,34.6h-5.3c-0.1,0-0.1-0.1-0.1-0.1v-2.9
	c0-0.1,0.1-0.1,0.1-0.1h3.6v-1.6h-3.6c-0.1,0-0.1-0.1-0.1-0.1v-2.8c0-0.1,0.1-0.1,0.1-0.1h4.7c0-0.1-0.6-1.5-0.7-1.6h-8.6v0.6
	c0.2,0.1,0.4,0.2,0.5,0.3c0.1,0.1,0.2,0.3,0.2,0.6v8.1c0,0.2-0.1,0.4-0.2,0.6c-0.1,0.1-0.3,0.2-0.5,0.3v0.6h9.3
	C24.4,36,25.1,34.6,25.1,34.6"/>
<path id="path214" inkscape:connector-curvature="0" class="st1" d="M31.6,34.7c-0.1,0-0.1-0.1-0.1-0.1v-7.8c0-0.1,0.1-0.1,0.1-0.1
	h0.6c2.1,0,3.3,1.3,3.3,3.7c0,2.9-1.1,4.4-3.3,4.4H31.6z M37.4,34.6c0.9-0.8,2-2.1,2-4.4c0-3.8-3.3-5.1-6.5-5.1h-6v0.6
	c0.2,0.1,0.4,0.2,0.5,0.3c0.1,0.1,0.2,0.3,0.2,0.6v8.1c0,0.2-0.1,0.4-0.2,0.6c-0.1,0.1-0.3,0.2-0.5,0.3v0.6h6
	C34.6,36.2,36.2,35.6,37.4,34.6"/>
<path id="path218" inkscape:connector-curvature="0" class="st1" d="M5.6,30.8c-0.1,0-0.1-0.1-0.1-0.1v-3.9c0-0.1,0.1-0.1,0.1-0.1h1
	c1.1,0,1.9,0.8,1.9,1.9C8.5,30,7.5,30.8,5.6,30.8 M9.4,36.2h4.3c-0.1-0.1-3.8-4.7-3.8-4.7c0,0,0-0.1,0-0.1c0,0,0,0,0,0
	c0,0,0-0.1,0.1-0.1c0.8-0.3,2.6-1.1,2.6-3.2c0-2-1.6-2.9-5.3-2.9H1v0.6c0.2,0.1,0.4,0.2,0.5,0.3c0.1,0.1,0.2,0.3,0.2,0.6v8.1
	c0,0.2-0.1,0.4-0.2,0.6c-0.1,0.1-0.3,0.2-0.5,0.3v0.6h5.2v-0.6c-0.2-0.1-0.4-0.2-0.5-0.3c-0.1-0.1-0.2-0.3-0.2-0.6v-2.6
	C5.5,32,5.6,32,5.6,32c0.3,0,0.6,0,0.9,0.4C6.5,32.4,9.3,36.1,9.4,36.2"/>
<path id="path242" inkscape:connector-curvature="0" class="st1" d="M73,35.6c-0.2-0.1-0.4-0.2-0.5-0.3c-0.1-0.1-0.2-0.3-0.2-0.6
	v-8.1c0-0.2,0.1-0.4,0.2-0.6c0.1-0.1,0.3-0.2,0.5-0.3v-0.6h-5.2v0.6c0.2,0.1,0.4,0.2,0.5,0.3c0.1,0.1,0.2,0.3,0.2,0.6v8.1
	c0,0.2-0.1,0.4-0.2,0.6c-0.1,0.1-0.3,0.2-0.5,0.3v0.6H73V35.6z"/>
<g id="g246">
</g>
<path id="path266" inkscape:connector-curvature="0" class="st1" d="M78,30.4c0,0,0.1,0,0.1,0c0,0,7.1,5.7,7.1,5.7h3.1v-0.6
	c-0.2-0.1-0.4-0.2-0.5-0.3c-0.1-0.1-0.2-0.3-0.2-0.6v-8.1c0-0.2,0.1-0.4,0.2-0.6c0.1-0.1,0.3-0.2,0.5-0.3v-0.6h-3.8v0.6
	c0.2,0.1,0.4,0.2,0.5,0.3c0.1,0.1,0.2,0.3,0.2,0.6V31c0,0,0,0.1-0.1,0.1c0,0-0.1,0-0.1,0c0,0-7.3-5.9-7.3-6h-2.9v0.6
	c0.2,0.1,0.4,0.2,0.5,0.3c0.1,0.1,0.2,0.3,0.2,0.6v8.1c0,0.2-0.1,0.4-0.2,0.6c-0.1,0.1-0.3,0.2-0.5,0.3v0.6h3.8v-0.6
	c-0.2-0.1-0.4-0.2-0.5-0.3c-0.1-0.1-0.2-0.3-0.2-0.6v-4.2C77.9,30.5,77.9,30.4,78,30.4"/>
<path id="path290" inkscape:connector-curvature="0" class="st1" d="M102.4,30.4v-0.6h-4.7v0.6c0.2,0.1,0.4,0.2,0.5,0.3
	c0.1,0.1,0.2,0.3,0.2,0.6v3.5c0,0,0,0.1-0.1,0.1c-0.2,0.1-0.5,0.1-1,0.1c-2.3,0-3.4-1.4-3.4-4.4c0-1.5,0.3-2.6,0.9-3.4
	c0.5-0.7,1.3-1,2.3-1c0.7,0,1.8,0.2,3.1,1.2c0.1-0.1,1.2-1.1,1.4-1.2c-1.3-1-3.1-1.5-4.8-1.5c-1.9,0-3.7,0.6-5,1.6
	c-1.4,1.1-2.1,2.6-2.1,4.3c0,1.7,0.7,3.2,2.1,4.3c1.3,1,3.1,1.6,5,1.6c1.7,0,3.5-0.6,4.9-1.6v-3.7c0-0.2,0.1-0.4,0.2-0.6
	C102,30.5,102.2,30.4,102.4,30.4"/>
<path id="path314" inkscape:connector-curvature="0" class="st1" d="M66.6,25.7C66.6,25.7,66.7,25.7,66.6,25.7l0-0.6h-3.7v0.6
	c0.2,0.1,0.3,0.2,0.4,0.3c0.1,0.1,0.1,0.2,0.1,0.3c0,0.1,0,0.1,0,0.2c0,0,0,0,0,0l-2.1,5.8c0,0-0.1,0.1-0.1,0.1
	c-0.1,0-0.1,0-0.1-0.1l-2.2-5.9c0,0,0,0,0,0c0-0.1,0-0.1,0-0.2c0-0.3,0.2-0.5,0.4-0.6v-0.6h-4.2v0.6c0.2,0.1,0.3,0.2,0.4,0.3
	c0,0.1,0.1,0.2,0.1,0.3c0,0.1,0,0.1,0,0.2c0,0,0,0,0,0l-2.2,5.8c0,0-0.1,0.1-0.1,0.1c-0.1,0-0.1,0-0.1-0.1c0,0-1.7-5.8-1.7-5.8
	c0-0.1,0-0.1,0-0.2c0-0.1,0-0.2,0.1-0.3c0.1-0.2,0.3-0.3,0.5-0.4v-0.6h-5.7v0.6c0,0,0,0,0,0c0.3,0.1,0.8,0.2,1,0.8
	c0,0,2.9,8.1,2.9,8.1c0,0.1,0.1,0.2,0.1,0.3c0,0.1,0,0.2-0.1,0.2c-0.1,0.2-0.3,0.3-0.5,0.3v0.6h5.1v-0.6c-0.2,0-0.4-0.1-0.5-0.3
	c0-0.1-0.1-0.2-0.1-0.2c0-0.1,0-0.2,0.1-0.3l1.8-4.8c0,0,0.1-0.1,0.1-0.1c0.1,0,0.1,0,0.1,0.1l2,5.1c0,0,0,0,0,0v0
	c0,0.4-0.3,0.5-0.5,0.6v0.6h5v-0.6c-0.2-0.1-0.5-0.2-0.5-0.5V35c0,0,0,0,0,0l3.3-8.4C65.8,25.9,66.3,25.8,66.6,25.7"/>
<path id="path318" inkscape:connector-curvature="0" class="st1" d="M54.4,52.4c-0.9,0-1.6-0.5-2.1-1.5c-0.4-0.8-0.6-2-0.6-3.4
	c0-1.2,0.3-2.3,0.7-3.1c0.5-0.8,1.1-1.2,1.9-1.2c0.7,0,1.4,0.4,1.9,1.2c0.5,0.8,0.8,1.8,0.8,3.1C57.1,50.6,56.1,52.4,54.4,52.4
	 M59.2,43.6c-1.2-1-2.9-1.6-4.8-1.6c-1.9,0-3.6,0.6-4.8,1.6c-1.3,1.1-2,2.6-2,4.3c0,1.7,0.7,3.2,2,4.3c1.2,1,2.9,1.6,4.8,1.6
	c1.9,0,3.6-0.6,4.8-1.6c1.3-1.1,2-2.6,2-4.3C61.2,46.2,60.5,44.7,59.2,43.6"/>
<path id="path342" inkscape:connector-curvature="0" class="st1" d="M46.1,52.8c-0.2-0.1-0.4-0.2-0.5-0.3c-0.1-0.1-0.2-0.3-0.2-0.6
	v-8.1c0-0.2,0.1-0.4,0.2-0.6c0.1-0.1,0.3-0.2,0.5-0.3v-0.6h-5.2V43c0.2,0.1,0.4,0.2,0.5,0.3c0.1,0.1,0.2,0.3,0.2,0.6v3
	c0,0.1-0.1,0.1-0.1,0.1h-4.2c-0.1,0-0.1-0.1-0.1-0.1v-3c0-0.2,0.1-0.4,0.2-0.6c0.1-0.1,0.3-0.2,0.5-0.3v-0.6h-5.2V43
	c0.2,0.1,0.4,0.2,0.5,0.3c0.1,0.1,0.2,0.3,0.2,0.6v8.1c0,0.2-0.1,0.4-0.2,0.6c-0.1,0.1-0.3,0.2-0.5,0.3v0.6h5.2v-0.6
	c-0.2-0.1-0.4-0.2-0.5-0.3c-0.1-0.1-0.2-0.3-0.2-0.6v-3.2c0-0.1,0.1-0.1,0.1-0.1h4.2c0.1,0,0.1,0.1,0.1,0.1v3.2
	c0,0.2-0.1,0.4-0.2,0.6c-0.1,0.1-0.3,0.2-0.5,0.3v0.6h5.2V52.8z"/>
<g id="g362">
	<g id="g364" transform="translate(192.4824,29.7526)">
		<path id="path366" inkscape:connector-curvature="0" class="st1" d="M-173,22.9c0.2-0.1,0.6-0.3,1.3,0c0,0,0,0,0,0
			c0.8,0.5,2.3,1.1,4.3,1.1c1.6,0,3-0.3,4-0.9c1.2-0.7,1.7-1.6,1.7-2.9c0-2.2-2.4-2.9-4.1-3.4l-0.4-0.1l-0.2-0.1
			c-1.9-0.5-2.9-0.8-2.9-1.9v0c0-0.7,0.8-1.1,2.1-1.1c1,0,2.5,0.5,3.4,1.3c0.1-0.1,1.5-1.2,1.5-1.2s0.3-0.2,0.4-0.3
			c-0.1-0.1-0.3-0.4-0.4-0.5c0,0,0,0,0,0c-0.2,0.1-0.6,0.3-1.4,0c0,0,0,0,0,0c-1-0.5-2.1-0.7-3.6-0.7c-0.8,0-2.3,0.1-3.6,0.8
			c-1.2,0.7-1.9,1.7-1.9,3.1c0,0.9,0.4,1.6,1.2,2.1c0.7,0.4,1.7,0.7,2.5,0.9c0.2,0.1,0.5,0.1,0.7,0.2c1.7,0.5,3,1,3,2.2
			c0,0.6-0.8,1-2.1,1c-1.5,0-3.2-0.9-4-1.7c-0.1,0.1-1.8,1.5-2,1.7C-173.2,22.5-173,22.8-173,22.9L-173,22.9z"/>
	</g>
</g>
<g id="g370">
</g>
<g id="g382">
	<g id="g386">
		<g id="g388" transform="translate(236.0527,29.7526)">
			<path id="path390" inkscape:connector-curvature="0" class="st1" d="M-162.1,22.9c0.2-0.1,0.6-0.3,1.3,0c0,0,0,0,0,0
				c0.8,0.5,2.3,1.1,4.3,1.1c1.6,0,3-0.3,4-0.9c1.2-0.7,1.7-1.6,1.7-2.9c0-2.3-2.2-3.2-4.3-3.8c-0.4-0.1-0.8-0.2-1.2-0.3
				c-1.3-0.3-2.1-0.5-2.1-1.3c0-0.7,0.8-1.1,2.1-1.1c1,0,2.5,0.5,3.4,1.3c0.1-0.1,1.5-1.2,1.5-1.2s0.3-0.2,0.4-0.3
				c-0.1-0.1-0.3-0.4-0.4-0.5c0,0,0,0,0,0c-0.2,0.1-0.6,0.3-1.4,0c0,0,0,0,0,0c-1-0.5-2.1-0.7-3.6-0.7c-0.8,0-2.3,0.1-3.6,0.8
				c-1.2,0.7-1.9,1.7-1.9,3.1c0,2.4,2.4,3.1,4,3.5l0.1,0c0.3,0.1,0.5,0.2,0.8,0.2c1.3,0.4,2.5,0.7,2.5,1.6c0,0.6-0.8,1-2.1,1
				c-1.5,0-3.2-0.9-4-1.7c-0.2,0.1-1.8,1.5-2,1.7C-162.3,22.5-162.1,22.8-162.1,22.9L-162.1,22.9z"/>
		</g>
	</g>
</g>
<g id="g394">
</g>
<g id="g404">
	<g id="g406">
		<g id="g410">
			<g id="g412" transform="translate(235.0068,30.404)">
				<path id="path414" inkscape:connector-curvature="0" class="st1" d="M-162.3,21.4h-5.3c-0.1,0-0.1-0.1-0.1-0.1v-2.9
					c0-0.1,0.1-0.1,0.1-0.1h3.6v-1.6h-3.6c-0.1,0-0.1-0.1-0.1-0.1v-2.8c0-0.1,0.1-0.1,0.1-0.1h4.7c0-0.1-0.6-1.5-0.7-1.6h-8.6v0.6
					c0.2,0.1,0.4,0.2,0.5,0.3c0.1,0.1,0.2,0.3,0.2,0.6v8.1c0,0.2-0.1,0.4-0.2,0.6c-0.1,0.1-0.3,0.2-0.5,0.3V23h9.3
					C-163,22.9-162.3,21.5-162.3,21.4"/>
			</g>
		</g>
	</g>
</g>
</svg>
